<svg xmlns="http://www.w3.org/2000/svg" width="100%" height="auto" viewBox="0 0 1024 1024" version="1.1">
	<path d="M 608.531 136.750 C 604.717 148.713, 599.436 165.208, 596.798 173.406 C 594.159 181.604, 592 188.851, 592 189.510 C 592 190.497, 605.462 195.414, 608.344 195.481 C 609.130 195.499, 611.169 189.731, 615.570 175.037 C 616.698 171.272, 617.923 169, 618.824 169 C 619.620 169, 627.463 171.286, 636.254 174.081 C 645.046 176.875, 652.575 178.788, 652.986 178.331 C 653.913 177.302, 657 168.106, 657 166.376 C 657 165.614, 650.367 163.007, 640.388 159.845 C 631.252 156.950, 623.582 154.075, 623.345 153.456 C 622.728 151.850, 628.498 134.472, 629.591 134.640 C 630.091 134.718, 638.600 137.306, 648.500 140.393 C 658.400 143.480, 667.023 146.005, 667.663 146.003 C 668.951 146, 673.027 133.885, 672.090 132.847 C 671.765 132.488, 662.725 129.409, 652 126.006 C 641.275 122.602, 629.137 118.734, 625.028 117.409 C 620.918 116.084, 617.086 115, 616.511 115 C 615.937 115, 612.346 124.787, 608.531 136.750 M 486 122.079 C 483.525 123.198, 480.038 125.526, 478.250 127.253 L 475 130.392 475 127.255 C 475 125.530, 474.513 123.817, 473.918 123.449 C 473.323 123.081, 469.498 123.093, 465.418 123.476 C 458.705 124.105, 457.997 124.376, 457.973 126.335 C 457.959 127.526, 459.167 141.270, 460.659 156.878 L 463.372 185.257 471.430 184.585 C 475.861 184.215, 479.802 183.595, 480.186 183.206 C 480.570 182.818, 480.212 175.433, 479.391 166.796 C 477.708 149.085, 478.224 145.076, 482.747 140.743 C 484.317 139.239, 487.913 137.469, 491.013 136.675 L 496.500 135.269 496.187 129.384 C 496.016 126.148, 495.648 122.713, 495.370 121.750 C 494.707 119.450, 491.570 119.560, 486 122.079 M 408.301 133.913 C 395.023 138.439, 386.678 149.427, 386.590 162.500 C 386.499 175.859, 392.587 186.195, 403.786 191.694 C 408.827 194.169, 410.560 194.490, 418.500 194.412 C 425.977 194.338, 428.680 193.840, 434.471 191.467 C 441.574 188.556, 450 181.549, 450 178.553 C 450 177.728, 447.637 175.458, 444.750 173.509 L 439.500 169.965 437 172.890 C 432.457 178.205, 423.401 181.048, 415.648 179.594 C 411.250 178.769, 404.864 173.181, 407.043 172.065 C 407.844 171.654, 417.837 168.929, 429.250 166.009 L 450 160.699 450 157.878 C 450 153.594, 445.733 144.964, 441.470 140.626 C 435.705 134.760, 428.950 132.007, 420.500 132.080 C 416.581 132.114, 411.211 132.920, 408.301 133.913 M 414.500 145.921 C 412.850 146.325, 410.521 147.271, 409.325 148.022 C 404.510 151.045, 400.533 162.862, 404.750 161.619 C 405.712 161.335, 411.873 159.734, 418.440 158.061 C 425.007 156.388, 430.741 154.659, 431.181 154.219 C 431.621 153.779, 431.283 152.422, 430.430 151.204 C 427.498 147.018, 420.071 144.555, 414.500 145.921 M 344.090 156.639 C 337.130 159.076, 332.048 162.987, 329.073 168.196 C 326.326 173.005, 326.324 173.006, 325.184 170.504 C 324.556 169.127, 323.645 168, 323.160 168 C 321.372 168, 309 174.050, 309 174.924 C 309 175.726, 314.546 187.527, 337.620 235.820 C 343.496 248.118, 344.157 249.086, 346.242 248.440 C 349.008 247.582, 360 242.115, 360 241.597 C 360 241.392, 357.529 236.111, 354.509 229.862 C 351.489 223.613, 349.014 218.247, 349.009 217.938 C 349.004 217.628, 351.813 217.369, 355.250 217.361 C 366.105 217.337, 376.291 211.320, 381.551 201.824 C 384.171 197.094, 384.500 195.547, 384.500 187.954 C 384.500 180.194, 384.183 178.782, 381.055 172.615 C 377.094 164.804, 370.757 158.795, 364.072 156.512 C 358.455 154.594, 349.775 154.649, 344.090 156.639 M 675.489 167.019 C 659.486 195.532, 657.799 201.012, 662.008 210.797 C 664.444 216.460, 668.663 220.726, 675.278 224.214 C 678.495 225.910, 681.226 226.448, 686.750 226.470 C 690.737 226.487, 694 226.737, 694 227.027 C 694 227.318, 693.326 228.517, 692.503 229.693 C 691.060 231.752, 691.270 231.983, 698.214 235.986 C 705.026 239.914, 705.496 240.042, 706.757 238.321 C 707.490 237.320, 713.765 226.150, 720.701 213.500 C 727.636 200.850, 733.792 189.724, 734.380 188.775 C 735.698 186.649, 735.367 186.337, 726.814 181.643 L 720.128 177.973 714.425 188.237 C 704.502 206.094, 701.823 210.137, 698.621 212.089 C 693.351 215.303, 686.969 214.229, 681.750 209.249 C 676.256 204.008, 678.489 196.692, 693.236 171.613 C 694.816 168.926, 695.898 166.175, 695.639 165.502 C 695.248 164.482, 682.823 157, 681.522 157 C 681.297 157, 678.582 161.509, 675.489 167.019 M 536.923 165.923 C 531.008 171.839, 534.336 183.034, 542.463 184.559 C 547.084 185.426, 552.426 182.729, 554.423 178.522 C 556.490 174.164, 556.408 172.182, 553.996 168.225 C 550.326 162.206, 541.791 161.055, 536.923 165.923 M 344.500 172.412 C 336.042 176.171, 333.021 186.079, 337.583 195.102 C 339.456 198.808, 345.332 203.694, 348.842 204.465 C 353.211 205.425, 359.124 203.485, 362.807 199.885 C 366.621 196.156, 367.407 193.592, 366.771 186.964 C 365.635 175.148, 354.587 167.929, 344.500 172.412 M 761.728 185.202 C 752.987 195.984, 715 246.275, 715 247.065 C 715 247.552, 717.813 250.172, 721.250 252.888 C 725.928 256.584, 727.823 257.558, 728.786 256.761 C 730.453 255.379, 778.029 193.118, 778.553 191.631 C 778.873 190.723, 768.777 182.382, 765.931 181.202 C 765.536 181.038, 763.644 182.838, 761.728 185.202 M 282.132 195.041 C 271.027 197.317, 260.061 206.016, 255.508 216.161 C 245.969 237.416, 261.998 261.089, 285.066 259.817 C 301.980 258.885, 317.471 244.461, 318.756 228.447 C 319.511 219.044, 317.130 212.334, 310.494 205.167 C 302.438 196.465, 292.497 192.916, 282.132 195.041 M 781.353 219.250 C 750.898 252.395, 739.038 265.540, 739.019 266.170 C 738.998 266.919, 749.685 277.335, 750.943 277.791 C 751.551 278.011, 786.362 240.596, 806.376 218.210 L 808.423 215.921 802.461 210.506 C 799.183 207.528, 796.038 205.071, 795.473 205.046 C 794.908 205.021, 788.554 211.412, 781.353 219.250 M 276.990 213.250 C 271.701 216.850, 269.656 220.333, 269.574 225.887 C 269.515 229.842, 270.104 231.683, 272.537 235.147 C 278.686 243.899, 286.266 246.227, 294.163 241.788 C 299.989 238.514, 302.340 234.115, 301.793 227.512 C 300.726 214.656, 286.741 206.614, 276.990 213.250 M 207.500 224.546 C 204.750 227.606, 202.275 230.358, 202 230.661 C 201.725 230.964, 215 244.413, 231.500 260.548 L 261.500 289.884 267.250 284.224 C 270.413 281.110, 273 278.022, 273 277.361 C 273 275.956, 215.554 219.624, 213.731 219.241 C 213.054 219.099, 210.250 221.486, 207.500 224.546 M 829.759 269.366 C 824.403 271.359, 821.526 273.444, 818.317 277.655 C 815.753 281.019, 815.504 282.077, 815.544 289.426 C 815.583 296.452, 816.134 298.918, 819.794 308.429 C 824.456 320.543, 825.150 326.649, 822.171 329.345 C 818.061 333.065, 811.954 330.484, 806.652 322.785 C 802.119 316.203, 799.225 308.764, 798.371 301.499 L 797.720 295.962 794.110 296.594 C 783.087 298.524, 783.523 298.299, 783.193 302.226 C 783.021 304.271, 783.956 308.947, 785.320 312.870 C 790.711 328.373, 799.966 340.390, 810.472 345.530 C 817.886 349.157, 825.609 348.766, 832.661 344.406 C 842.847 338.109, 844.426 329.304, 838.384 312.500 C 832.304 295.587, 831.521 292.347, 832.825 289.485 C 835.430 283.767, 842.908 284.546, 848.451 291.114 C 852.246 295.610, 856.775 305.320, 857.580 310.682 C 858.088 314.069, 858.646 315, 860.171 315 C 862.892 315, 871.322 312.889, 872.369 311.945 C 873.710 310.736, 871.133 301.308, 867.276 293.315 C 858.638 275.414, 842.017 264.803, 829.759 269.366 M 201.242 271.125 C 194.741 273.623, 187.189 280.787, 183.357 288.089 C 180.851 292.867, 180.518 294.553, 180.516 302.500 C 180.514 312.839, 182.259 317.259, 189.007 324.007 C 196.617 331.617, 206.287 334.876, 215.824 333.046 C 223.779 331.519, 227.862 329.229, 234.549 322.546 C 242.602 314.497, 245.399 308.587, 245.456 299.500 L 245.500 292.500 240.500 292.814 C 232.689 293.304, 232 293.692, 232 297.601 C 232 304.319, 225.739 313.640, 219.685 315.933 C 216.166 317.267, 209.319 317.324, 208.517 316.028 C 208.187 315.493, 213.997 306.972, 221.430 297.093 L 234.944 279.130 231.722 276.410 C 223.035 269.075, 211.693 267.108, 201.242 271.125 M 202.500 286.271 C 194.755 290.603, 192.287 299.920, 196.924 307.320 L 198.692 310.141 207.346 298.676 C 212.106 292.370, 216 286.766, 216 286.222 C 216 285.082, 212.630 284.026, 209 284.030 C 207.625 284.032, 204.700 285.040, 202.500 286.271 M 160.401 322.241 L 156.665 329.791 168.501 343.645 C 175.011 351.265, 181.466 358.733, 182.846 360.240 C 184.225 361.746, 185.127 363.206, 184.850 363.483 C 184.573 363.761, 175.830 363.318, 165.423 362.500 C 138.535 360.387, 141.609 359.736, 137.290 368.465 C 135.258 372.570, 133.864 376.197, 134.190 376.524 C 134.769 377.102, 187.477 380.926, 195.550 380.975 L 199.600 381 203.471 373.059 C 206.912 366.002, 207.185 364.917, 205.921 363.309 C 203.777 360.580, 167.998 318.784, 165.933 316.596 C 164.185 314.743, 164.035 314.896, 160.401 322.241 M 859.750 333.566 C 857.138 334.926, 855 336.269, 855 336.551 C 855 336.833, 855.675 338.680, 856.500 340.654 C 857.325 342.629, 858 344.388, 858 344.563 C 858 344.738, 852.038 347.751, 844.750 351.259 C 830.650 358.045, 825.882 361.796, 823.962 367.616 C 821.440 375.256, 824.712 386.371, 831.646 393.723 L 835.067 397.351 839.533 392.967 C 841.990 390.556, 844 388.180, 844 387.686 C 844 387.193, 842.875 385.452, 841.500 383.818 C 838.586 380.354, 838.258 375.965, 840.750 373.763 C 842.680 372.058, 864.434 361, 865.860 361 C 866.352 361, 867.761 363.363, 868.991 366.250 C 872.411 374.274, 872.372 374.253, 878.782 371.418 C 881.872 370.051, 884.565 368.769, 884.766 368.568 C 884.967 368.367, 883.751 365.470, 882.065 362.130 C 880.379 358.790, 879 355.677, 879 355.212 C 879 354.748, 881.700 353.077, 885 351.500 C 888.300 349.923, 891 348.049, 891 347.335 C 891 345.467, 884.721 333, 883.780 333 C 883.346 333, 880.658 334.125, 877.808 335.500 C 874.958 336.875, 872.118 338, 871.498 338 C 870.878 338, 869.619 336.425, 868.701 334.500 C 866.736 330.379, 866.016 330.304, 859.750 333.566 M 881.065 389.434 L 876.714 393.868 880.782 398.489 C 886.977 405.527, 889.492 414.631, 886.846 420.439 C 885.476 423.446, 881.132 426.539, 879.960 425.343 C 879.506 424.879, 877.768 420.225, 876.100 415 C 874.431 409.775, 871.886 403.682, 870.445 401.459 C 862.998 389.977, 849.374 389.088, 841.384 399.563 C 834.524 408.557, 838.812 427.658, 849.096 433.912 L 852.132 435.758 849.066 436.827 C 847.380 437.415, 846 438.208, 846 438.590 C 846 441.245, 850.319 452.999, 851.292 452.993 C 854.813 452.972, 888.759 441.824, 892.788 439.366 C 904.135 432.442, 906.202 416.672, 898.010 399.528 C 894.913 393.048, 888.610 385, 886.630 385 C 885.963 385, 883.458 386.995, 881.065 389.434 M 143.987 391.380 C 133.779 393.535, 125.791 400.609, 121.923 410.921 C 118.986 418.750, 119.474 431.436, 122.979 438.330 C 127.853 447.917, 137.418 453.939, 149.100 454.775 C 157.974 455.410, 164.452 453.198, 171.026 447.287 C 182.201 437.240, 187.127 417.652, 181.456 405.814 L 179.690 402.128 173.752 405.125 C 168.347 407.854, 167.872 408.352, 168.455 410.678 C 170.082 417.159, 170.100 419.146, 168.577 424.382 C 166.599 431.187, 161.626 436.604, 156.468 437.572 C 154.509 437.939, 152.738 438.071, 152.532 437.865 C 152.325 437.659, 154.989 427.690, 158.450 415.712 C 165.445 391.507, 165.498 392.832, 157.482 391.531 C 155.292 391.176, 152.600 390.734, 151.500 390.550 C 150.400 390.367, 147.019 390.740, 143.987 391.380 M 140.299 408.960 C 134.951 412.220, 131.974 420.360, 133.944 426.332 C 135.252 430.295, 140.632 435.819, 141.844 434.443 C 142.521 433.675, 145.041 425.476, 149.741 408.750 C 150.440 406.264, 144.503 406.396, 140.299 408.960 M 854.364 410.444 C 849.789 413.677, 850.646 422.371, 856.050 427.548 C 858.570 429.962, 859.943 430.482, 863.579 430.404 C 866.025 430.351, 868.313 430.020, 868.665 429.668 C 869.682 428.652, 865.979 416.266, 863.599 412.722 C 861.133 409.049, 857.578 408.172, 854.364 410.444 M 874.275 456.654 C 868.766 458.605, 860.704 465.913, 858.079 471.337 C 852.944 481.945, 853.348 495.780, 859.088 505.830 C 862.071 511.053, 868.917 517.013, 871.900 516.985 C 872.930 516.975, 874.480 514.571, 876.251 510.235 C 878.836 503.906, 878.896 503.425, 877.251 502.262 C 868.568 496.121, 866.478 486.755, 872.047 478.934 C 876.126 473.206, 887.963 470.861, 894.843 474.419 C 903.280 478.782, 905.402 491.056, 898.983 498.366 L 896.065 501.690 900.615 507.942 L 905.164 514.194 907.803 511.847 C 915.004 505.444, 917.208 500.217, 917.174 489.630 C 917.121 473.310, 909.435 461.228, 896.124 456.541 C 890.670 454.620, 879.861 454.676, 874.275 456.654 M 120.650 460.049 C 112.977 461.337, 105.693 465.485, 99.657 472.004 C 93.644 478.498, 90.738 484.848, 89.052 495.174 C 88.138 500.772, 86 528.315, 86 534.490 C 86 537.094, 83.280 536.712, 118 538.982 C 126.525 539.539, 140.434 540.470, 148.908 541.051 C 159.912 541.805, 164.507 541.798, 164.983 541.027 C 165.350 540.433, 166.214 530.622, 166.903 519.224 C 167.995 501.163, 167.960 497.565, 166.627 491.224 C 162.949 473.735, 151.594 462.888, 134 460.060 C 130.425 459.485, 127.050 459.065, 126.500 459.125 C 125.950 459.186, 123.318 459.601, 120.650 460.049 M 120.395 479.079 C 115.165 480.329, 108.761 485.792, 106.125 491.253 C 104.149 495.347, 101.267 517.005, 102.445 518.911 C 102.940 519.712, 112.616 520.453, 138.250 521.653 L 152 522.297 152.233 514.398 C 152.598 502.006, 152.339 497.556, 151.017 493.551 C 149.431 488.746, 144.706 483.401, 139.857 480.927 C 135.280 478.592, 126.084 477.719, 120.395 479.079 M 858.589 523.157 C 858.358 523.896, 857.916 527.930, 857.608 532.123 L 857.047 539.746 865.012 540.441 C 872.937 541.132, 872.996 541.158, 876.645 545.611 C 878.742 548.171, 879.925 550.437, 879.406 550.904 C 878.908 551.353, 873.280 555.369, 866.899 559.828 L 855.299 567.937 854.649 575.619 C 853.356 590.924, 851.603 590.736, 871.234 577.399 C 880.712 570.959, 889.171 565.507, 890.030 565.282 C 891.047 565.016, 895.417 569.256, 902.546 577.424 C 908.571 584.326, 913.776 589.980, 914.114 589.987 C 914.977 590.005, 916.005 581.785, 915.975 575.110 L 915.950 569.500 905.369 556.689 C 899.549 549.644, 895.053 543.613, 895.378 543.289 C 895.702 542.964, 905.988 543.391, 918.234 544.238 C 930.480 545.085, 940.837 545.576, 941.250 545.330 C 941.663 545.083, 942 541.084, 942 536.441 C 942 528.354, 941.906 528, 939.750 527.999 C 938.513 527.998, 925.800 527.116, 911.500 526.039 C 897.200 524.962, 881.675 523.826, 877 523.514 C 872.325 523.203, 866.364 522.693, 863.754 522.381 C 860.270 521.964, 858.897 522.170, 858.589 523.157 M 135.624 583.998 C 120.964 589.724, 114.213 600.078, 115.219 615.292 C 115.832 624.555, 118.822 631.418, 124.805 637.295 C 131.289 643.664, 137.690 646.324, 146.546 646.329 C 157.758 646.336, 168.237 640.616, 173.446 631.645 C 179.238 621.670, 179.063 607.664, 172.992 595.332 C 170.095 589.447, 164.013 583, 161.358 583 C 160.705 583, 158.771 585.277, 157.059 588.059 L 153.946 593.118 157.312 597.052 C 164.847 605.854, 164.890 620.566, 157.396 625.476 C 154.436 627.416, 155.204 629.407, 149.489 605 C 146.978 594.275, 144.686 584.712, 144.394 583.750 C 143.727 581.544, 141.765 581.600, 135.624 583.998 M 132.178 604.601 C 128.611 608.928, 127.650 612.985, 129.001 618.005 C 130.782 624.619, 134.169 627.749, 141.544 629.600 C 144.715 630.396, 144.705 630.162, 140.909 614.089 C 138.851 605.379, 137.370 601, 136.481 601 C 135.747 601, 133.810 602.620, 132.178 604.601 M 840.045 635.756 C 829.261 663.728, 828.683 665.682, 828.587 674.500 C 828.484 683.976, 830.243 687.819, 836.793 692.422 C 844.301 697.699, 856.788 696.781, 861.939 690.573 C 863.869 688.248, 864.761 688.636, 865.530 692.136 C 866.635 697.166, 873.800 703.577, 879.743 704.851 C 889.566 706.958, 897.716 702.083, 903.738 690.500 C 906.648 684.903, 921.105 647.772, 920.580 647.246 C 920.267 646.933, 902.292 639.948, 863.599 625.101 C 854.854 621.746, 847.429 619.003, 847.099 619.006 C 846.770 619.010, 843.595 626.547, 840.045 635.756 M 851.912 643.648 C 842.432 667.870, 841.732 674.259, 848.194 677.600 C 851.975 679.556, 855.961 678.695, 859.303 675.201 C 861.404 673.006, 871 650.839, 871 648.182 C 871 647.781, 867.513 646.162, 863.250 644.585 C 858.987 643.007, 854.944 641.510, 854.264 641.257 C 853.584 641.004, 852.526 642.079, 851.912 643.648 M 882.881 655.750 C 875.027 675.951, 874.384 680.133, 878.527 684.026 C 881.904 687.198, 887.091 687.202, 890.462 684.036 C 892.562 682.063, 901 662.869, 901 660.065 C 901 659.290, 886.481 652.982, 884.725 652.995 C 884.299 652.998, 883.469 654.237, 882.881 655.750 M 135 659.027 C 131.425 660.581, 128.396 662.448, 128.269 663.176 C 127.868 665.479, 133.386 672.379, 138.240 675.646 L 142.915 678.792 139.958 680.018 C 138.331 680.691, 137 681.803, 137 682.488 C 137 684.262, 141.116 694.276, 142.413 695.658 C 143.226 696.525, 150.348 693.997, 170.708 685.616 C 185.673 679.456, 198.164 674.169, 198.467 673.866 C 198.952 673.381, 193.616 659.283, 192.541 658.207 C 192.311 657.977, 185.176 660.537, 176.686 663.895 C 167.132 667.674, 159.774 669.999, 157.375 669.996 C 151.891 669.991, 147.508 666.937, 144.518 661.036 C 143.115 658.266, 141.861 656.045, 141.733 656.101 C 141.605 656.156, 138.575 657.473, 135 659.027 M 186.048 693.250 C 167.110 704.637, 162.864 708.459, 160.404 716.336 C 158.665 721.902, 158.660 722.474, 160.295 728.708 C 163.112 739.449, 173.318 752.930, 182.129 757.548 C 185.128 759.120, 185.806 758.607, 190.027 751.572 C 192.304 747.776, 192.320 747.608, 190.496 746.572 C 186.663 744.395, 179.128 736.790, 177.588 733.544 C 175.306 728.735, 175.524 722.476, 178.063 719.938 C 179.197 718.803, 180.647 718.049, 181.284 718.261 C 181.922 718.474, 184.466 721.990, 186.937 726.074 C 195.754 740.643, 204.099 746.397, 212.955 744.012 C 217.580 742.767, 222.464 738.936, 224.536 734.931 C 230.206 723.965, 219.127 702.141, 207.800 701.964 C 205.553 701.929, 205.566 701.874, 208.354 699.593 C 210.909 697.504, 211.080 697.009, 209.985 694.879 C 207.177 689.424, 203.431 684.003, 202.466 684.002 C 201.897 684.001, 194.509 688.163, 186.048 693.250 M 817.698 700.432 C 809.675 703.319, 802.877 709.934, 799.908 717.742 C 799.350 719.209, 798.881 722.976, 798.866 726.112 L 798.839 731.815 795.984 730.176 C 794.414 729.275, 792.941 728.754, 792.711 729.019 C 790.383 731.697, 784.978 741.499, 785.327 742.410 C 785.575 743.056, 796.856 750.860, 810.397 759.750 L 835.015 775.915 839.507 769.218 C 841.978 765.535, 843.991 762.067, 843.980 761.511 C 843.969 760.955, 837.863 756.479, 830.412 751.564 C 815.716 741.870, 812.417 738.741, 811.448 733.573 C 810.566 728.873, 813.886 721.628, 817.863 719.571 C 824.261 716.262, 826.712 717.169, 846.071 730.006 C 852.701 734.403, 858.530 738, 859.025 738 C 859.763 738, 865.460 730.242, 868.361 725.289 C 869.132 723.971, 843.013 705.993, 835 702.326 C 828.762 699.471, 822.326 698.767, 817.698 700.432 M 193.046 709.930 L 190.592 711.816 195.046 719.134 C 199.731 726.831, 202.580 728.824, 207.233 727.656 C 208.747 727.276, 210.237 725.841, 210.980 724.048 C 212.044 721.479, 211.926 720.484, 210.121 716.786 C 206.334 709.025, 198.379 705.832, 193.046 709.930 M 214.750 760.186 C 198.938 767.395, 186 773.807, 186 774.435 C 186 775.062, 188.184 777.727, 190.854 780.356 L 195.707 785.137 215.354 776.167 C 226.159 771.234, 235 767.526, 235 767.927 C 235 768.328, 230.950 776.861, 226 786.890 C 221.050 796.919, 217 805.451, 217 805.850 C 217 807.004, 226.453 816, 227.666 816 C 228.269 816, 237.029 812.233, 247.132 807.628 C 257.234 803.024, 265.706 799.443, 265.958 799.670 C 266.210 799.897, 262.172 808.610, 256.984 819.033 L 247.551 837.982 252.991 843.491 C 255.983 846.521, 258.801 849, 259.251 849 C 259.702 849, 260.904 847.087, 261.923 844.750 C 262.942 842.413, 268.741 830.277, 274.810 817.782 C 280.879 805.287, 286.152 794.098, 286.526 792.918 C 287.068 791.212, 286.118 789.670, 281.888 785.386 C 278.962 782.424, 275.852 780, 274.977 780 C 274.102 780, 265.809 783.385, 256.549 787.522 C 247.288 791.660, 239.566 794.899, 239.388 794.721 C 239.210 794.543, 242.898 786.357, 247.583 776.530 L 256.103 758.662 250.333 752.831 C 247.159 749.624, 244.324 747.017, 244.031 747.039 C 243.739 747.060, 230.563 752.976, 214.750 760.186 M 770.099 756.886 C 767.295 760.123, 765 763.016, 765 763.314 C 765 763.613, 775.158 772.901, 787.573 783.955 L 810.146 804.053 814.823 798.888 C 822.060 790.894, 822.030 791.284, 815.875 785.559 C 802.756 773.354, 777.080 751, 776.182 751 C 775.641 751, 772.903 753.649, 770.099 756.886 M 748.500 779 L 742.563 785 748.078 790.750 C 751.112 793.913, 760.993 804.375, 770.036 814 C 796.201 841.850, 799.293 845, 800.463 845 C 802.058 845, 812.303 834.392, 811.867 833.193 C 811.383 831.864, 755.803 773, 755.032 773 C 754.705 773, 751.766 775.700, 748.500 779 M 824.206 801.480 C 818.287 806.461, 817.675 812.941, 822.686 817.585 C 829.270 823.686, 840 817.522, 840 807.639 C 840 805.002, 839.268 803.561, 836.923 801.589 C 832.905 798.208, 828.144 798.167, 824.206 801.480 M 723.500 802.347 C 712.798 805.889, 705.148 812.435, 702.886 819.987 L 701.654 824.099 699.577 821.505 L 697.500 818.911 690.762 823.570 C 686.778 826.324, 684.289 828.693, 684.672 829.364 C 685.029 829.989, 690.289 837.700, 696.360 846.500 C 719.697 880.326, 731.168 896.512, 732.022 896.818 C 732.987 897.164, 744.485 889.643, 745.498 888.003 C 745.840 887.449, 742.718 882.087, 738.560 876.087 C 734.402 870.087, 731 864.975, 731 864.728 C 731 864.481, 733.219 864.016, 735.932 863.695 C 745.285 862.587, 754.657 855.939, 759.005 847.330 C 760.720 843.932, 761.558 840.359, 761.830 835.279 C 762.171 828.893, 761.869 827.318, 759.220 821.656 C 757.572 818.134, 754.558 813.410, 752.522 811.156 C 745.493 803.375, 732.400 799.401, 723.500 802.347 M 298.680 804.690 C 298.408 805.685, 297.898 807.850, 297.545 809.500 C 297.193 811.150, 296.688 813.235, 296.422 814.134 C 296.097 815.234, 296.712 815.962, 298.307 816.362 C 299.609 816.689, 301.873 817.899, 303.338 819.051 C 307.830 822.585, 307.019 826.263, 299.094 838.287 C 295.296 844.051, 291.771 849.024, 291.261 849.339 C 290.751 849.654, 288.796 848.879, 286.917 847.616 C 285.038 846.354, 282.331 844.567, 280.902 843.645 L 278.304 841.969 274.636 847.494 L 270.967 853.018 275.601 856.259 C 278.149 858.042, 280.947 860.010, 281.819 860.634 C 283.215 861.633, 282.963 862.407, 279.702 867.143 C 277.666 870.099, 276 873.010, 276 873.612 C 276 874.214, 279.114 876.777, 282.919 879.308 L 289.839 883.909 293.669 877.963 C 295.776 874.693, 297.950 872.024, 298.500 872.031 C 299.050 872.038, 300.625 872.924, 302 874 C 303.375 875.076, 304.950 875.957, 305.500 875.960 C 306.050 875.962, 308.021 873.639, 309.880 870.797 L 313.261 865.629 310.970 863.775 C 309.711 862.755, 307.993 861.536, 307.154 861.066 C 305.899 860.364, 306.927 858.299, 312.916 849.486 C 321.723 836.526, 323.949 831.842, 323.978 826.210 C 324.027 816.557, 314.018 806.082, 302.337 803.562 C 299.783 803.011, 299.078 803.228, 298.680 804.690 M 719.990 820.250 C 714.494 823.991, 712.500 827.490, 712.500 833.396 C 712.500 844.971, 723.473 853.886, 733.483 850.445 C 744.980 846.492, 748.060 833.832, 739.809 824.436 C 733.844 817.642, 726.196 816.026, 719.990 820.250 M 348.713 835.315 C 347.879 836.588, 343.277 845.476, 338.486 855.065 C 333.695 864.654, 329.586 872.702, 329.355 872.949 C 329.125 873.196, 325.972 871.936, 322.350 870.150 C 318.728 868.364, 315.646 867.037, 315.502 867.201 C 314.955 867.826, 310 877.958, 310 878.452 C 310 878.738, 312.813 880.381, 316.250 882.104 C 319.688 883.827, 322.688 885.409, 322.918 885.620 C 323.864 886.486, 320.379 891.270, 317.849 892.578 C 314.745 894.183, 312.890 893.733, 308.145 890.221 L 304.789 887.737 300.183 892.343 L 295.577 896.949 298.539 900.068 C 304.920 906.788, 315.774 910.215, 323.817 908.049 C 328.782 906.712, 335.210 901.321, 337.004 896.989 C 338.471 893.448, 338.851 893.390, 343.306 896.018 C 346.014 897.616, 346.937 897.772, 347.742 896.768 C 349.155 895.005, 353 887.271, 353 886.192 C 353 885.703, 351.187 884.486, 348.972 883.487 C 346.756 882.488, 345.074 881.407, 345.234 881.085 C 345.394 880.763, 349.907 871.842, 355.262 861.260 C 360.618 850.678, 365 841.588, 365 841.059 C 365 840.034, 353.016 833, 351.269 833 C 350.698 833, 349.547 834.042, 348.713 835.315 M 655.754 841.084 C 647.458 843.040, 636.196 850.073, 632.143 855.829 C 628.189 861.445, 628.414 862.669, 633.913 865.456 C 636.674 866.855, 639.511 867.983, 640.217 867.962 C 640.923 867.941, 642.695 866.195, 644.155 864.082 C 647.913 858.644, 656.458 854.566, 662.635 855.262 C 666.960 855.750, 671.970 858.411, 672.703 860.608 C 672.884 861.151, 663.988 865.571, 652.934 870.430 C 641.880 875.289, 632.608 879.858, 632.329 880.584 C 631.478 882.804, 637.151 891.951, 642.190 896.481 C 654.029 907.125, 673.503 905.574, 686.107 892.984 C 698.649 880.454, 697.632 859.946, 683.852 847.557 C 676.344 840.807, 666.526 838.545, 655.754 841.084 M 382.500 854.271 C 369.396 859.658, 362.977 868.635, 362.207 882.648 C 361.816 889.768, 362.073 891.479, 364.241 896.214 C 368.843 906.267, 378.034 912.864, 391.288 915.627 C 396.751 916.766, 399.447 916.855, 403.322 916.024 C 418.695 912.727, 428.327 900.834, 428.444 885 C 428.540 872.085, 422.200 862.670, 409.086 856.254 C 404.587 854.052, 402 853.528, 394.556 853.307 C 389.047 853.143, 384.325 853.521, 382.500 854.271 M 607.775 859.047 C 604.076 859.993, 600.390 861.020, 599.584 861.329 C 598.359 861.800, 598.761 864.317, 602.040 876.696 C 606.344 892.949, 606.851 898.750, 604.340 903.001 C 602.602 905.943, 597.356 909.306, 592.854 910.364 C 590.443 910.931, 590.275 911.277, 590.970 914.243 C 593.179 923.683, 594.130 925.999, 595.789 925.977 C 598.936 925.934, 607.442 920.537, 609.483 917.289 C 612.003 913.276, 612.671 913.228, 613.500 917 C 614.269 920.500, 614.963 920.589, 623.586 918.291 C 628.280 917.040, 630 916.127, 630 914.885 C 630 912.884, 616.090 860.003, 615.146 858.413 C 614.694 857.652, 612.480 857.843, 607.775 859.047 M 385.470 872.267 C 375.871 881.866, 377.712 895.620, 389.236 900.396 C 393.373 902.110, 394.424 902.190, 398.163 901.069 C 406.451 898.586, 411.899 889.742, 410.691 880.731 C 409.617 872.724, 403.849 868.010, 395.118 868.004 C 390.115 868, 389.437 868.300, 385.470 872.267 M 452 869.564 C 444.457 871.951, 439.746 875.240, 436.614 880.306 C 430.653 889.948, 432.643 900.810, 441.609 907.569 C 443.870 909.273, 450.620 912.631, 456.609 915.030 C 470.514 920.601, 473.860 922.595, 474.660 925.783 C 476.179 931.835, 469.611 936.440, 460.842 935.471 C 454.923 934.816, 445.766 931.682, 442.057 929.041 C 440.481 927.918, 438.705 927, 438.110 927 C 437.203 927, 431 937.869, 431 939.457 C 431 940.648, 438.944 945.089, 444.501 947.004 C 453.124 949.976, 461.730 950.972, 469.913 949.945 C 485.042 948.045, 493 939.850, 493 926.172 C 493 921.459, 492.474 919.504, 490.372 916.406 C 486.270 910.362, 481.858 907.639, 466.992 901.977 C 455.653 897.659, 452 894.888, 452 890.604 C 452 885.186, 454.834 883.495, 463.858 883.529 C 472.834 883.564, 479.861 885.696, 487.138 890.593 C 489.923 892.467, 492.501 894, 492.867 894 C 493.725 894, 500 883.532, 500 882.100 C 500 880.363, 492.288 875.254, 486.145 872.921 C 473.479 868.111, 460.592 866.844, 452 869.564 M 531.500 872.161 C 526.205 875.072, 524.208 882.996, 527.561 887.783 C 529.464 890.500, 534.089 893.001, 537.200 892.996 C 541.043 892.990, 545.693 889.461, 546.974 885.577 C 550.056 876.241, 539.975 867.500, 531.500 872.161 M 665 876.350 C 649.770 883.195, 650.384 882.716, 653.115 885.622 C 661.890 894.963, 680.663 886.429, 678.833 873.930 C 678.650 872.680, 678.050 871.550, 677.500 871.419 C 676.950 871.289, 671.325 873.508, 665 876.350" stroke="none" fill="black" fill-rule="evenodd"/>
</svg>